<?xml version="1.0" encoding="UTF-8"?>
<svg width="378px" height="130px" viewBox="0 0 378 130" version="1.1" xmlns="http://www.w3.org/2000/svg" xmlns:xlink="http://www.w3.org/1999/xlink">
    <title>Logo</title>
    <g id="Page-1" stroke="none" stroke-width="1" fill="none" fill-rule="evenodd">
        <g id="Logo" transform="translate(-0.000000, 0.715900)">
            <line x1="66" y1="3.2841" x2="66" y2="128.2841" id="Path" stroke="#2A5699" stroke-width="2"></line>
            <line x1="34" y1="2.2841" x2="96" y2="2.2841" id="Path" stroke="#2A5699" stroke-width="2"></line>
            <line x1="34" y1="127.2841" x2="96" y2="127.2841" id="Path" stroke="#2A5699" stroke-width="2"></line>
            <line x1="1" y1="2.2841" x2="1" y2="128.2841" id="Path" stroke="#000000" stroke-width="2"></line>
            <line x1="129" y1="2.2841" x2="129" y2="128.2841" id="Path" stroke="#000000" stroke-width="2"></line>
            <line x1="2.84217094e-14" y1="64.2841" x2="65" y2="64.2841" id="Path" stroke="#2A5699" stroke-width="2"></line>
            <circle id="Oval" stroke="#2A5699" stroke-width="2" cx="33.5" cy="96.7841" r="30.5"></circle>
            <line x1="65.293" y1="65.5771" x2="129.293" y2="1.577" id="Path" stroke="#2A5699" stroke-width="2"></line>
            <line x1="0.7015" y1="1.5714" x2="128.702" y2="127.5711" id="Path" stroke="#000000" stroke-width="2"></line>
            <path d="M239.009,0.5568 L239.009,41.2841 L236.582,41.2841 L210.611,5.071 L210.372,5.071 L210.372,41.2841 L207.886,41.2841 L207.886,0.5568 L210.332,0.5568 L236.304,36.8101 L236.543,36.8101 L236.543,0.5568 L239.009,0.5568 Z M249.19,41.2841 L246.565,41.2841 L261.261,0.5568 L264.125,0.5568 L278.821,41.2841 L276.196,41.2841 L262.793,3.7585 L262.594,3.7585 L249.19,41.2841 Z M252.909,25.9517 L272.477,25.9517 L272.477,28.2585 L252.909,28.2585 L252.909,25.9517 Z M316.898,20.9205 C316.898,25.1231 316.169,28.7955 314.711,31.9375 C313.253,35.0661 311.224,37.4991 308.626,39.2361 C306.04,40.9721 303.058,41.8411 299.677,41.8411 C296.283,41.8411 293.287,40.9721 290.688,39.2361 C288.103,37.4861 286.081,35.0461 284.623,31.9176 C283.165,28.7756 282.435,25.1099 282.435,20.9205 C282.435,16.7178 283.165,13.0521 284.623,9.9233 C286.094,6.7945 288.123,4.3617 290.708,2.625 C293.293,0.875 296.283,0 299.677,0 C303.058,0 306.04,0.8684 308.626,2.6051 C311.224,4.3419 313.253,6.7813 314.711,9.9233 C316.169,13.0521 316.898,16.7178 316.898,20.9205 Z M314.472,20.9205 C314.472,17.1421 313.836,13.8674 312.563,11.0966 C311.304,8.3258 309.56,6.1847 307.333,4.6733 C305.106,3.1487 302.554,2.3864 299.677,2.3864 C296.8,2.3864 294.248,3.1421 292.021,4.6534 C289.793,6.1515 288.043,8.2926 286.771,11.0767 C285.511,13.8475 284.881,17.1288 284.881,20.9205 C284.881,24.6724 285.504,27.9403 286.751,30.7244 C288.01,33.4951 289.754,35.6431 291.981,37.1681 C294.208,38.6921 296.773,39.4541 299.677,39.4541 C302.554,39.4541 305.106,38.6991 307.333,37.1871 C309.56,35.6631 311.304,33.5151 312.563,30.7443 C313.836,27.9735 314.472,24.6989 314.472,20.9205 Z M326.613,0.5568 L329.317,0.5568 L345.008,37.7041 L345.286,37.7041 L360.977,0.5568 L363.681,0.5568 L363.681,41.2841 L361.295,41.2841 L361.295,6.4631 L361.056,6.4631 L346.32,41.2841 L343.974,41.2841 L329.238,6.4631 L328.999,6.4631 L328.999,41.2841 L326.613,41.2841 L326.613,0.5568 Z M377.935,0.5568 L377.935,41.2841 L375.449,41.2841 L375.449,0.5568 L377.935,0.5568 Z" id="Shape" fill="#000000" fill-rule="nonzero"></path>
            <path d="M206.315,128.2841 L203.69,128.2841 L218.386,87.5571 L221.25,87.5571 L235.946,128.2841 L233.321,128.2841 L219.918,90.7581 L219.719,90.7581 L206.315,128.2841 Z M210.034,112.9521 L229.602,112.9521 L229.602,115.2581 L210.034,115.2581 L210.034,112.9521 Z M243.543,128.2841 L243.543,87.5571 L246.028,87.5571 L246.028,125.9771 L265.915,125.9771 L265.915,128.2841 L243.543,128.2841 Z M276.042,128.2841 L273.417,128.2841 L288.113,87.5571 L290.977,87.5571 L305.673,128.2841 L303.048,128.2841 L289.644,90.7581 L289.445,90.7581 L276.042,128.2841 Z M279.761,112.9521 L299.329,112.9521 L299.329,115.2581 L279.761,115.2581 L279.761,112.9521 Z M343.75,107.9201 C343.75,112.1231 343.021,115.7951 341.562,118.9371 C340.104,122.0661 338.076,124.4991 335.477,126.2361 C332.892,127.9721 329.909,128.8411 326.528,128.8411 C323.134,128.8411 320.138,127.9721 317.54,126.2361 C314.955,124.4861 312.933,122.0461 311.474,118.9181 C310.016,115.7751 309.287,112.1101 309.287,107.9201 C309.287,103.7181 310.016,100.0521 311.474,96.9231 C312.946,93.7941 314.974,91.3621 317.56,89.6251 C320.145,87.8751 323.134,87.0001 326.528,87.0001 C329.909,87.0001 332.892,87.8681 335.477,89.6051 C338.076,91.3421 340.104,93.7811 341.562,96.9231 C343.021,100.0521 343.75,103.7181 343.75,107.9201 Z M341.324,107.9201 C341.324,104.1421 340.688,100.8671 339.415,98.0961 C338.155,95.3261 336.412,93.1851 334.185,91.6731 C331.957,90.1491 329.405,89.3861 326.528,89.3861 C323.652,89.3861 321.099,90.1421 318.872,91.6531 C316.645,93.1511 314.895,95.2931 313.622,98.0771 C312.363,100.8471 311.733,104.1291 311.733,107.9201 C311.733,111.6721 312.356,114.9401 313.602,117.7241 C314.862,120.4951 316.605,122.6431 318.832,124.1681 C321.06,125.6921 323.625,126.4541 326.528,126.4541 C329.405,126.4541 331.957,125.6991 334.185,124.1871 C336.412,122.6631 338.155,120.5151 339.415,117.7441 C340.688,114.9731 341.324,111.6991 341.324,107.9201 Z" id="Shape" fill="#2A5699" fill-rule="nonzero"></path>
        </g>
    </g>
</svg>